# xmcd
# 
# Track frame offsets:
#     150
#     18019
#     34494
#     58246
#     80933
#     99594
#     116075
#     138458
#     154057
#     174192
# 
# Disc length: 2631
# 
# Revision: 0
# Processed by: cddbd v1.5.2PL0 Copyright (c) Steve Scherf et al.
# Submitted via: fre:ac v1.0.17
# 
DISCID=840a450a
DTITLE=Jordan Officer - I'm Free
DYEAR=2014
DGENRE=Blues
TTITLE0=At Least I've Got the Blues
TTITLE1=A Night of Fun
TTITLE2=I'm Free
TTITLE3=When We Were Just Two
TTITLE4=I'm All Alone
TTITLE5=Jackie's Tune
TTITLE6=Two Will Do
TTITLE7=Life Just Showed Me
TTITLE8=Ain't Nobody's Business
TTITLE9=Hang 'Em High
EXTD=
EXTT0=
EXTT1=
EXTT2=
EXTT3=
EXTT4=
EXTT5=
EXTT6=
EXTT7=
EXTT8=
EXTT9=
PLAYORDER=
